<svg xmlns="http://www.w3.org/2000/svg" width="30.016" height="30.016"><path d="M18.135 6.033a184.808 184.808 0 0 0 .18.06v-2.16h.04v-.16h.04v-.16h.04v-.16h.04v-.16h.04v-.2a.103.103 0 0 1 .006-.014c.03-.05.131-.173.18-.216a.134.134 0 0 1 .013-.01v-.04a24.407 24.407 0 0 0-.1-.02 24.407 24.407 0 0 1-.1-.02v-.04h-.12v-.04h-.16v-.04h-.12v-.04h-.119v-.04h-.12v-.04h-.16v-.04h-.16v-.04h-.159v-.04a58.892 58.892 0 0 1-.16-.02 58.892 58.892 0 0 0-.16-.02v-.04l-.399-.04v-.04l-.439-.04v-.04h-.28v-.04h-.28v-.04h-.359v-.04h-.559c-.307-.087-1.21-.086-1.517 0h-.56v.04h-.359v.04h-.28v.04h-.279v.04h-.24v.04l-.399.04v.04h-.2v.04h-.16v.04h-.159v.04h-.16v.04a2918.193 2918.193 0 0 1-.319.04v.04h-.12v.04h-.12v.04h-.12v.04a46.455 46.455 0 0 1-.14.02 46.455 46.455 0 0 0-.139.02v.04h-.08v.04a374.247 374.247 0 0 0-.18.04 101.703 101.703 0 0 0-.18.04v.04h-.08v.04H8.85v.04h-.08v.04h-.12v.04h-.08v.04h-.12v.04a700.836 700.836 0 0 0-.12.04 700.836 700.836 0 0 1-.119.04v.04h-.08v.04h-.12v.04a69.967 69.967 0 0 1-.12.04 69.967 69.967 0 0 0-.12.04v.04l-.239.08v.04h-.08a12.472 12.472 0 0 0-.02.04 12.472 12.472 0 0 1-.02.04h-.08v.04h-.08v.04h-.08v.04h-.08c-.012.027-.026.053-.039.08h-.08v.04h-.08v.04h-.08v.04a31.834 31.834 0 0 0-.06.02 13.998 13.998 0 0 0-.06.02l-.04.08a392.509 392.509 0 0 1-.08.02 392.509 392.509 0 0 0-.08.02c-.012.027-.026.054-.04.08h-.079a7.637 7.637 0 0 0-.02.04 15.54 15.54 0 0 0-.02.04h-.08a31.227 31.227 0 0 0-.04.08h-.08l-.04.08h-.08a43.317 43.317 0 0 0-.04.06 43.317 43.317 0 0 1-.04.06h-.08c-.012.027-.026.053-.039.08h-.08a51.847 51.847 0 0 0-.026.04 16.176 16.176 0 0 1-.054.08h-.08a28.93 28.93 0 0 1-.08.12h-.08a43.15 43.15 0 0 1-.06.08 28.8 28.8 0 0 0-.06.08h-.079a100.417 100.417 0 0 1-.08.1 318.988 318.988 0 0 0-.08.1h-.08a87.642 87.642 0 0 1-.1.12 87.642 87.642 0 0 0-.1.12h-.08a483.197 483.197 0 0 1-.279.3 689.495 689.495 0 0 1-.28.3 501.288 501.288 0 0 1-.299.28 8891.879 8891.879 0 0 0-.3.28v.08a202.862 202.862 0 0 1-.12.1 202.862 202.862 0 0 0-.119.1v.08l-.08.04v.04a23.57 23.57 0 0 0-.12.08v.08l-.16.12v.08l-.12.08v.08l-.119.08v.08l-.08.04v.08a28.795 28.795 0 0 0-.12.08v.08a5.166 5.166 0 0 1-.032.016 3.456 3.456 0 0 0-.047.025 23.151 23.151 0 0 0-.02.06 120.353 120.353 0 0 1-.02.06h-.04v.08l-.08.04a114.6 114.6 0 0 1-.02.06 39.153 39.153 0 0 1-.02.06h-.04l-.04.16a62.698 62.698 0 0 1-.04.02 62.698 62.698 0 0 0-.04.02 119.864 119.864 0 0 1-.02.06 39.295 39.295 0 0 1-.02.06h-.04a455.955 455.955 0 0 0-.04.12 157.871 157.871 0 0 0-.04.12 5.104 5.104 0 0 0-.04.02 5.104 5.104 0 0 1-.04.02v.08h-.04v.08h-.04v.08h-.04v.08a5.12 5.12 0 0 0-.053.026 10.254 10.254 0 0 1-.026.014l-.08.24h-.04v.08h-.04a234.232 234.232 0 0 1-.04.12 234.232 234.232 0 0 0-.04.12h-.04v.12h-.04v.08h-.04a234.015 234.015 0 0 1-.08.24h-.04v.12h-.04v.08h-.04v.12h-.04v.08h-.04v.12h-.04v.08H.904a1404.535 1404.535 0 0 1-.08.36h-.04v.08h-.04v.12h-.04v.16h-.04v.12h-.04v.12h-.04v.12h-.04v.16h-.04v.16h-.04v.16h-.04v.16h-.04v.16h-.04v.2a2.38 2.38 0 0 0-.031.115c-.033.126-.063.272-.095.401a2.912 2.912 0 0 1-.033.124v.28h-.04l-.04.68h-.04v.52c-.086.308-.084 1.212 0 1.52v.52h.04l.04.68h.04v.28h.04v.24h.04l.04.4h.04v.2h.04v.16h.04v.16h.04v.16h.04a233.96 233.96 0 0 1 .02.16 455.434 455.434 0 0 0 .02.16 134.975 134.975 0 0 1 .08.227c.102.292.205.584.313.87a9.148 9.148 0 0 0 .765 1.624v.08h.04v.08h.04v.08h.04v.08l.08.04a157.871 157.871 0 0 0 .04.12 455.955 455.955 0 0 0 .04.12h.04l.04.12a4.773 4.773 0 0 0 .04.02 4.773 4.773 0 0 1 .039.02l.04.16a62.347 62.347 0 0 1 .08.04v.08a10.218 10.218 0 0 0 .08.04v.08l.08.04v.08h.04a5517.956 5517.956 0 0 1 .02.06 5517.956 5517.956 0 0 0 .02.06 12.38 12.38 0 0 0 .08.04v.08a7.663 7.663 0 0 0 .06.04l.06.04v.08a130.45 130.45 0 0 1 .119.08v.08l.12.08v.08l.16.12v.08l.2.16v.08a202.862 202.862 0 0 0 .119.1 202.862 202.862 0 0 1 .12.1v.08a1378.62 1378.62 0 0 1 .679.64l.479.52h.08a175.984 175.984 0 0 0 .1.12 175.984 175.984 0 0 1 .1.12h.08a17.776 17.776 0 0 1 .02.04 24.808 24.808 0 0 1 .02.04h.04a21.504 21.504 0 0 1 .052.08 43.405 43.405 0 0 0 .027.04h.08a137.377 137.377 0 0 1 .12.16h.08a16.176 16.176 0 0 1 .053.08 51.847 51.847 0 0 0 .026.04h.08a35.793 35.793 0 0 0 .032.049 13.214 13.214 0 0 1 .048.072h.08l.08.12h.08a31.227 31.227 0 0 1 .04.08 175.999 175.999 0 0 1 .12.04v.04h.08a12.3 12.3 0 0 0 .04.08h.08a24.808 24.808 0 0 0 .02.04 17.776 17.776 0 0 0 .02.04 10.284 10.284 0 0 0 .059.02 10.284 10.284 0 0 1 .06.02v.04a15.493 15.493 0 0 0 .08.02 15.493 15.493 0 0 1 .08.02 17.776 17.776 0 0 1 .02.04 24.808 24.808 0 0 1 .02.04 175.021 175.021 0 0 1 .06.02 175.021 175.021 0 0 0 .06.02v.04a92.723 92.723 0 0 1 .12.04 73.347 73.347 0 0 0 .119.04 23.895 23.895 0 0 1 .02.04 17.71 17.71 0 0 1 .02.04h.08v.04h.08v.04h.08v.04h.08a6.01 6.01 0 0 0 .408.235c.615.323 1.308.569 2.001.816a101.002 101.002 0 0 1 .306.109 4041.215 4041.215 0 0 0 .938.2 4041.215 4041.215 0 0 1 .939.2h.32v.04h.359v.04a240376.013 240376.013 0 0 0 .699.02 240376.013 240376.013 0 0 1 .699.02 6084.593 6084.593 0 0 0 .798-.04 1945.271 1945.271 0 0 0 .799-.04v-.04a181.222 181.222 0 0 0 .28-.02 181.222 181.222 0 0 1 .279-.02v-.04h.24v-.04h.2v-.04h.199v-.04h.2v-.04h.16v-.04h.16v-.04h.159v-.04h.16v-.04h.16v-.04h.12v-.04h.119v-.04h.12v-.04l.28-.04v-.04h.08v-.04l.359-.08v-.04h.08v-.04h.12v-.04h.08v-.04h.119v-.04h.08v-.04h.12v-.04a700.836 700.836 0 0 0 .12-.04 700.836 700.836 0 0 1 .12-.04v-.04h.079v-.04h.12v-.04l.24-.08v-.04h.08v-.04a48.177 48.177 0 0 1 .12-.04 197.665 197.665 0 0 1 .119-.04 17.776 17.776 0 0 0 .02-.04 24.808 24.808 0 0 0 .02-.04h.08v-.04h.08v-.04h.08v-.04h.08l.04-.08h.08v-.04h.079v-.04h.08v-.04a175.021 175.021 0 0 0 .06-.02 175.021 175.021 0 0 1 .06-.02 24.808 24.808 0 0 1 .02-.04 17.776 17.776 0 0 1 .02-.04 15.493 15.493 0 0 1 .08-.02 15.493 15.493 0 0 0 .08-.02l.04-.08h.08a17.776 17.776 0 0 0 .02-.04 24.808 24.808 0 0 0 .02-.04h.079l.04-.08h.08v-.04a175.999 175.999 0 0 1 .12-.04l.04-.08h.08a17.26 17.26 0 0 1 .08-.12h.08a13.214 13.214 0 0 1 .047-.072 35.793 35.793 0 0 0 .032-.048h.08a51.847 51.847 0 0 0 .027-.04 16.176 16.176 0 0 1 .053-.08h.08a137.377 137.377 0 0 1 .12-.16h.08l.16-.2h.079a175.984 175.984 0 0 1 .1-.12 175.984 175.984 0 0 0 .1-.12h.08l.399-.44a46.83 46.83 0 0 1 .338-.332c.108-.107.213-.212.316-.323a4.744 4.744 0 0 0 .384-.466 96.547 96.547 0 0 1 .053-.04 26.52 26.52 0 0 0 .107-.08v-.08l.16-.12v-.08l.12-.08v-.08a130.45 130.45 0 0 1 .12-.08v-.08a42.833 42.833 0 0 1 .03-.02l.089-.06v-.08a12.38 12.38 0 0 0 .08-.04 5517.956 5517.956 0 0 0 .02-.06 5517.956 5517.956 0 0 1 .02-.06h.04v-.08a4.958 4.958 0 0 1 .04-.02 5.908 5.908 0 0 0 .04-.02v-.08a10.218 10.218 0 0 0 .08-.04v-.08a62.347 62.347 0 0 1 .08-.04l.04-.16a4.773 4.773 0 0 1 .04-.02 4.773 4.773 0 0 0 .04-.02v-.08l.079-.04a455.955 455.955 0 0 0 .04-.12 157.871 157.871 0 0 0 .04-.12l.08-.04v-.08h.04v-.08h.04v-.08h.04v-.08a10.279 10.279 0 0 0 .04-.02 10.279 10.279 0 0 1 .04-.02 455.731 455.731 0 0 0 .04-.12 93.892 93.892 0 0 1 .04-.12h.04v-.08h.04a93.687 93.687 0 0 1 .04-.12 447.683 447.683 0 0 0 .04-.12h.039v-.12h.04v-.08h.04a116.054 116.054 0 0 0 .053-.16 232.145 232.145 0 0 1 .027-.08h.04v-.12h.04v-.08h.04a78.443 78.443 0 0 0 .026-.133 140.48 140.48 0 0 0 .013-.067h.04v-.12h.04v-.08h.04a1486.5 1486.5 0 0 0 .08-.36h.04v-.08h.04a304.775 304.775 0 0 0 .02-.14 264.44 264.44 0 0 0 .02-.14h.04v-.12h.04v-.12h.04v-.12h.04v-.16h.04v-.16h.04v-.16h.04v-.16h.04v-.16h.04v-.2c.044-.145.084-.346.126-.516a2.934 2.934 0 0 1 .033-.124v-.28h.04v-.28h.04v-.4h.04v-.52a.702.702 0 0 0 .005-.022c.082-.326.078-1.197-.005-1.498v-.52h-.04v-.401h-.04v-.28h-.04a957.922 957.922 0 0 1-.02-.26 957.922 957.922 0 0 0-.02-.26 9.301 9.301 0 0 1-.153-.619c-.027-.121-.054-.243-.083-.361a4.302 4.302 0 0 0-.163-.54.678.678 0 0 1-.019-.055c-.038-.13-.05-.285-.095-.407a.34.34 0 0 0-.086-.138c-.026-.016-.004-.057-.072-.042a.24.24 0 0 0-.008.002v.04a6.16 6.16 0 0 1-.072.024 9.948 9.948 0 0 0-.048.016v.04a714.07 714.07 0 0 0-.26.04 207.274 207.274 0 0 0-.259.04 1.825 1.825 0 0 1-.134.039c-.65.163-1.647.085-2.421.081a146.114 146.114 0 0 0 .047.144 218.222 218.222 0 0 1 .072.216h.04l.04.24h.04v.08h.04v.12h.04v.12h.04v.12h.04v.16h.04v.12h.04l.04.28h.04v.16h.04l.04.36h.04v.24h.04v.2h.04v.28h.04c.012.28.026.56.04.84a.237.237 0 0 1 0 .006c.044.172.096 1.07.039 1.274h-.04v.4a5481.166 5481.166 0 0 1-.08.72h-.04v.2h-.04v.24h-.04v.16h-.04a306.992 306.992 0 0 0-.02.18 558.727 558.727 0 0 1-.02.18 8379.474 8379.474 0 0 0-.16.48 4204.84 4204.84 0 0 1-.319.96h-.04l-.04.16h-.04v.12h-.04a234.015 234.015 0 0 1-.08.24h-.04v.081h-.04v.08h-.04v.08h-.039v.08h-.04v.08h-.04v.08l-.08.04a78.03 78.03 0 0 1-.04.12 78.03 78.03 0 0 0-.04.12 5.158 5.158 0 0 1-.04.02 5.158 5.158 0 0 0-.04.02 703.307 703.307 0 0 1-.02.08 71.063 71.063 0 0 1-.02.08 10.254 10.254 0 0 0-.026.013 5.12 5.12 0 0 1-.053.027 78.41 78.41 0 0 0-.02.08 131.823 131.823 0 0 0-.02.08l-.08.04v.08h-.04l-.04.12a62.698 62.698 0 0 1-.04.02 62.698 62.698 0 0 0-.04.02v.08a5.104 5.104 0 0 0-.04.02 5.104 5.104 0 0 1-.04.02 4120.684 4120.684 0 0 1-.02.06 4120.684 4120.684 0 0 0-.02.06 129.725 129.725 0 0 0-.06.04 129.725 129.725 0 0 1-.06.04v.08a12.923 12.923 0 0 0-.12.08v.08l-.159.12v.08a52.428 52.428 0 0 0-.12.1l-.12.1v.08a916.52 916.52 0 0 1-.559.52l-.399.44h-.08a175.821 175.821 0 0 1-.2.24h-.08a53.316 53.316 0 0 1-.12.16h-.08a9.7 9.7 0 0 1-.039.06l-.04.06h-.08l-.08.12a10.424 10.424 0 0 0-.08.027 18.67 18.67 0 0 1-.04.013l-.04.08h-.08a12.472 12.472 0 0 0-.02.04 12.472 12.472 0 0 1-.02.04 175.999 175.999 0 0 0-.119.04v.04h-.08a9.653 9.653 0 0 1-.02.04 131.549 131.549 0 0 0-.02.04 390.316 390.316 0 0 0-.16.04 15.593 15.593 0 0 0-.02.04 2075.003 2075.003 0 0 1-.02.04 392.509 392.509 0 0 1-.08.02 392.509 392.509 0 0 0-.08.02 6.47 6.47 0 0 0-.02.04c-.001.005-.004.01-.006.014a10.961 10.961 0 0 1-.013.026 707.948 707.948 0 0 1-.12.04 707.948 707.948 0 0 0-.12.04 60.77 60.77 0 0 1-.04.08 126.648 126.648 0 0 0-.12.04 55.891 55.891 0 0 0-.12.04v.04h-.08v.04h-.08v.04a707.948 707.948 0 0 1-.119.04 707.948 707.948 0 0 0-.12.04v.04h-.12v.04h-.08v.04a392.509 392.509 0 0 1-.08.02 392.509 392.509 0 0 0-.08.02v.04h-.119v.04h-.08v.04l-.24.04v.04h-.08v.04h-.12v.04h-.119v.04h-.12v.04h-.16v.04h-.12v.04h-.159v.04h-.12v.04l-.36.04v.04h-.159v.04h-.24v.04h-.2v.04h-.279v.04a409.313 409.313 0 0 0-.42.02 409.313 409.313 0 0 1-.418.02.231.231 0 0 1-.006.002c-.158.04-.935.088-1.214.05a.45.45 0 0 1-.058-.011v-.04a409.313 409.313 0 0 1-.42-.02 409.313 409.313 0 0 0-.419-.02v-.04h-.28v-.04h-.2v-.04h-.239v-.04a75.855 75.855 0 0 0-.18-.02 75.855 75.855 0 0 1-.18-.02v-.04h-.159v-.04l-.28-.04v-.04h-.12v-.04h-.159v-.04l-.36-.08v-.04h-.08v-.04l-.239-.04v-.04h-.08v-.04h-.12v-.04h-.08v-.04l-.2-.04v-.04a700.836 700.836 0 0 1-.119-.04 700.836 700.836 0 0 0-.12-.04v-.04h-.08v-.04h-.08v-.04h-.08v-.04h-.08v-.04H8.93v-.04h-.08a60.77 60.77 0 0 1-.04-.08 707.948 707.948 0 0 0-.12-.04 707.948 707.948 0 0 1-.12-.04 10.961 10.961 0 0 1-.013-.027l-.006-.014a6.47 6.47 0 0 0-.02-.04 392.509 392.509 0 0 0-.08-.02 392.509 392.509 0 0 1-.08-.02 2075.003 2075.003 0 0 1-.02-.04 15.593 15.593 0 0 0-.02-.04 390.316 390.316 0 0 0-.16-.04v-.04l-.12-.04-.04-.08h-.08a12.472 12.472 0 0 1-.02-.04 12.472 12.472 0 0 0-.02-.04h-.08a21.356 21.356 0 0 1-.04-.06l-.04-.06h-.079a4675.444 4675.444 0 0 1-.04-.06 21.779 21.779 0 0 1-.04-.06h-.08a24.802 24.802 0 0 0-.02-.03l-.02-.03a9.7 9.7 0 0 1-.04-.06h-.08a53.316 53.316 0 0 1-.12-.16h-.08a175.821 175.821 0 0 1-.199-.24h-.08l-.28-.32-.678-.64v-.08l-.24-.2v-.08l-.16-.12v-.08a12.923 12.923 0 0 0-.12-.08v-.08a129.725 129.725 0 0 1-.06-.04 129.725 129.725 0 0 0-.06-.04v-.08a130.45 130.45 0 0 1-.119-.08v-.08a62.698 62.698 0 0 0-.04-.02 62.698 62.698 0 0 1-.04-.02 29.39 29.39 0 0 0-.04-.12h-.04v-.08a5.565 5.565 0 0 1-.04-.02 5.565 5.565 0 0 0-.04-.02 131.823 131.823 0 0 0-.02-.08 78.41 78.41 0 0 0-.02-.08 5.12 5.12 0 0 1-.053-.027 10.254 10.254 0 0 0-.026-.013 71.063 71.063 0 0 1-.02-.08 703.307 703.307 0 0 1-.02-.08 5.158 5.158 0 0 0-.04-.02 5.158 5.158 0 0 1-.04-.02 78.03 78.03 0 0 0-.04-.12 78.03 78.03 0 0 1-.04-.12l-.08-.04a93.968 93.968 0 0 0-.04-.12 481.702 481.702 0 0 1-.04-.12h-.04v-.08h-.04v-.08h-.04a234.232 234.232 0 0 0-.04-.12 234.232 234.232 0 0 1-.04-.12h-.04v-.12h-.04v-.08h-.04c-.012-.053-.026-.107-.04-.16h-.039v-.12h-.04v-.08h-.04l-.04-.24h-.04v-.08h-.04v-.12h-.04v-.12h-.04v-.12h-.04v-.16h-.04v-.12h-.04l-.04-.28h-.04v-.16h-.04v-.2h-.04v-.16H3.42v-.24h-.04v-.2h-.04v-.28H3.3v-.32h-.04v-.52a.235.235 0 0 1-.001-.007c-.04-.158-.088-.936-.05-1.215a.449.449 0 0 1 .011-.059h.04v-.52h.04v-.32h.04a2230.061 2230.061 0 0 1 .04-.36 1589.247 1589.247 0 0 1 .04-.36l.4-1.44h.04v-.08h.04c.012-.08.026-.16.04-.24h.039v-.08h.04v-.12h.04v-.08h.04v-.08h.04v-.08h.04v-.12h.04a116.52 116.52 0 0 1 .04-.12 116.52 116.52 0 0 0 .04-.12h.04v-.08h.04v-.08h.04v-.08h.04v-.08h.04v-.08l.079-.04a117.782 117.782 0 0 1 .04-.12 117.782 117.782 0 0 0 .04-.12 5.104 5.104 0 0 0 .04-.02 5.104 5.104 0 0 1 .04-.02 703.307 703.307 0 0 1 .02-.08 71.063 71.063 0 0 1 .02-.08l.08-.04a48.357 48.357 0 0 0 .02-.08 5490.466 5490.466 0 0 1 .02-.08 4.773 4.773 0 0 1 .04-.02 4.773 4.773 0 0 0 .04-.02v-.08a5.104 5.104 0 0 0 .04-.02 5.104 5.104 0 0 1 .04-.02v-.08a130.45 130.45 0 0 0 .119-.08v-.08a62.347 62.347 0 0 0 .08-.04v-.08a39.74 39.74 0 0 0 .06-.04 22.592 22.592 0 0 0 .06-.04v-.08l.12-.08v-.08a40.922 40.922 0 0 0 .053-.04 31.265 31.265 0 0 1 .106-.08v-.08a201.7 201.7 0 0 1 .24-.2v-.08a1379.892 1379.892 0 0 0 .34-.32 1379.892 1379.892 0 0 1 .339-.32 315.759 315.759 0 0 0 .28-.32h.08a175.821 175.821 0 0 1 .199-.24h.08a53.316 53.316 0 0 1 .12-.16h.08a85.516 85.516 0 0 0 .04-.06 85.516 85.516 0 0 1 .04-.06h.08a128.918 128.918 0 0 0 .026-.04l.013-.02a21.356 21.356 0 0 1 .04-.06h.08a12.472 12.472 0 0 0 .02-.04 12.472 12.472 0 0 1 .02-.04h.08a21.694 21.694 0 0 1 .032-.049 14.525 14.525 0 0 0 .048-.072h.08l.04-.08a17.468 17.468 0 0 0 .12-.04v-.04a390.316 390.316 0 0 0 .159-.04 15.593 15.593 0 0 0 .02-.04 2075.003 2075.003 0 0 1 .02-.04 392.509 392.509 0 0 1 .08-.02 392.509 392.509 0 0 0 .08-.02l.04-.08a707.948 707.948 0 0 1 .12-.04 707.948 707.948 0 0 0 .12-.04 60.77 60.77 0 0 1 .039-.08 126.648 126.648 0 0 0 .12-.04 55.891 55.891 0 0 0 .12-.04v-.04h.08v-.04h.08v-.04a48.177 48.177 0 0 1 .12-.04 197.665 197.665 0 0 1 .119-.04v-.04h.12v-.04h.08v-.04a12.464 12.464 0 0 1 .08-.02l.08-.02v-.04a12670.73 12670.73 0 0 1 .958-.32 25187.539 25187.539 0 0 0 .48-.16 75.715 75.715 0 0 0 .239-.026 151 151 0 0 1 .12-.014v-.04h.16v-.04h.239v-.04h.2v-.04h.28v-.04h.319v-.04h.519a.239.239 0 0 1 .006-.002c.159-.04.935-.087 1.213-.05a.447.447 0 0 1 .059.012v.04h.519a4731.9 4731.9 0 0 0 .778.14 2120.027 2120.027 0 0 0 .78.14v.04a47.463 47.463 0 0 1 .139.02 47.463 47.463 0 0 0 .14.02v.04l.28.04v.04h.12v.04a33.573 33.573 0 0 0 .119.02 33.573 33.573 0 0 1 .12.02v.04h.08v.04a44.326 44.326 0 0 0 .12.02 155.572 155.572 0 0 0 .12.02v.04a149.91 149.91 0 0 1 .179.06Zm3.614 6.701.12.4h.04v.12h.04v.12h.04v.12h.04l.04.28h.04l.24 1.24v.44h.039v.6a10.96 10.96 0 0 1-.001.174c-.008.47-.048.94-.159 1.306l-.04.4h-.04a455.434 455.434 0 0 0-.02.16 233.96 233.96 0 0 1-.02.16h-.04l-.04.281h-.04v.12h-.04v.12h-.04v.12h-.04v.08h-.04v.12h-.04v.08h-.039v.12h-.04a367.703 367.703 0 0 1-.02.08 43.58 43.58 0 0 0-.02.08h-.04v.08h-.04v.12h-.04l-.04.16h-.04a43.58 43.58 0 0 1-.02.08 367.703 367.703 0 0 0-.02.08l-.08.04a157.338 157.338 0 0 1-.04.12 482.505 482.505 0 0 1-.04.12 5.104 5.104 0 0 0-.04.02 5.104 5.104 0 0 1-.04.02 703.307 703.307 0 0 1-.02.08 71.063 71.063 0 0 1-.019.08h-.04l-.04.12a30.862 30.862 0 0 0-.04.02 6.216 6.216 0 0 0-.04.02v.08h-.04a5517.956 5517.956 0 0 0-.02.06 5517.956 5517.956 0 0 1-.02.06 62.698 62.698 0 0 1-.04.02 62.698 62.698 0 0 0-.04.02v.08l-.12.08v.08a25.873 25.873 0 0 0-.06.04 42.984 42.984 0 0 1-.06.04v.08a96.622 96.622 0 0 1-.099.08 96.622 96.622 0 0 0-.1.08v.08a208.42 208.42 0 0 0-.2.18 288.027 288.027 0 0 1-.2.18 2776.414 2776.414 0 0 0-.518.56h-.08a37.325 37.325 0 0 1-.096.12 90.64 90.64 0 0 0-.064.08h-.08l-.08.12h-.08l-.08.12h-.08a15.54 15.54 0 0 1-.02.04 7.637 7.637 0 0 1-.02.04 175.021 175.021 0 0 0-.06.02 175.021 175.021 0 0 1-.059.02v.04h-.08a31.27 31.27 0 0 1-.02.04 31.27 31.27 0 0 0-.02.04l-.12.04v.04a390.316 390.316 0 0 1-.16.04l-.04.08a700.836 700.836 0 0 0-.12.04 700.836 700.836 0 0 1-.119.04 12.472 12.472 0 0 1-.04.08l-.16.04v.04a390.316 390.316 0 0 1-.16.04v.04h-.12v.04h-.079v.04l-.16.04v.04h-.12v.04h-.08v.04a24.407 24.407 0 0 1-.1.02 24.407 24.407 0 0 0-.1.02v.04h-.119v.04h-.12v.04h-.12v.04a1981.337 1981.337 0 0 1-.14.02 1981.337 1981.337 0 0 0-.139.02v.04a115.6 115.6 0 0 1-.32.04v.04h-.2v.04h-.199v.04h-.24v.04H15v.04h-.44a1.245 1.245 0 0 1-.154.032c-.49.07-1.35-.015-1.682-.112h-.24l-1.358-.36v-.04h-.08v-.04h-.12v-.04h-.08v-.04h-.119v-.04l-.16-.04v-.04h-.08v-.04l-.359-.12a31.227 31.227 0 0 0-.04-.08h-.08v-.04h-.08v-.04h-.08v-.04h-.08l-.04-.08a390.316 390.316 0 0 1-.16-.04l-.039-.08h-.08a31.27 31.27 0 0 0-.02-.04 31.27 31.27 0 0 1-.02-.04h-.08v-.04a175.021 175.021 0 0 1-.06-.02 175.021 175.021 0 0 0-.06-.02 7.637 7.637 0 0 1-.02-.04 15.54 15.54 0 0 1-.02-.04h-.08a87.538 87.538 0 0 0-.04-.06 87.538 87.538 0 0 1-.04-.06H8.93a21.779 21.779 0 0 0-.04-.06 4675.444 4675.444 0 0 0-.04-.06h-.08a90.64 90.64 0 0 0-.064-.08 37.325 37.325 0 0 1-.096-.12h-.08a608.647 608.647 0 0 0-.339-.36 608.647 608.647 0 0 1-.34-.36l-.239-.2v-.08a96.622 96.622 0 0 0-.1-.08 96.622 96.622 0 0 1-.1-.08v-.08l-.12-.08v-.08a16.244 16.244 0 0 0-.06-.04 12.853 12.853 0 0 0-.06-.04v-.08a62.698 62.698 0 0 0-.04-.02 62.698 62.698 0 0 1-.04-.02v-.08l-.079-.04v-.08a6.216 6.216 0 0 0-.04-.02 30.862 30.862 0 0 0-.04-.02v-.08l-.08-.04a71.063 71.063 0 0 1-.02-.08 703.307 703.307 0 0 1-.02-.08 5.104 5.104 0 0 1-.04-.02 5.104 5.104 0 0 0-.04-.02v-.08h-.04v-.08h-.04v-.08h-.04v-.08a5.104 5.104 0 0 1-.04-.02 5.104 5.104 0 0 0-.04-.02l-.119-.36h-.04v-.08h-.04a43.58 43.58 0 0 0-.02-.08 367.703 367.703 0 0 1-.02-.08h-.04v-.12h-.04v-.08h-.04v-.12h-.04v-.08h-.04v-.12h-.04v-.12h-.04v-.12h-.04v-.16h-.04v-.12h-.04a3578.904 3578.904 0 0 0-.239-1.24v-.44h-.04c-.052-.188-.002-.934.037-1.107a.29.29 0 0 1 .003-.014v-.44c.08-.284.112-.65.2-.92v-.16h.04v-.16h.04v-.12h.04v-.16h.04v-.12h.04v-.12h.04v-.12h.04v-.08h.04v-.12h.04v-.08h.04v-.12h.04a367.703 367.703 0 0 1 .02-.08 43.58 43.58 0 0 0 .02-.08h.04v-.08h.04v-.12h.039l.04-.16h.04v-.08l.08-.04v-.08h.04v-.08h.04v-.08h.04v-.08a10.218 10.218 0 0 0 .08-.04 55.932 55.932 0 0 0 .02-.08 55.932 55.932 0 0 1 .02-.08h.04l.04-.12a4.701 4.701 0 0 1 .031-.016l.048-.024v-.08h.04l.04-.12.08-.04v-.08a39.74 39.74 0 0 0 .06-.04 22.592 22.592 0 0 0 .06-.04v-.08a25.873 25.873 0 0 0 .06-.04 42.984 42.984 0 0 1 .06-.04v-.08a96.622 96.622 0 0 1 .1-.08 96.622 96.622 0 0 0 .1-.08v-.08l.478-.44.44-.48h.08a152.779 152.779 0 0 0 .08-.1 74.768 74.768 0 0 1 .08-.1h.079a85.516 85.516 0 0 0 .04-.06 85.516 85.516 0 0 1 .04-.06h.08a17.37 17.37 0 0 1 .04-.06 17.37 17.37 0 0 0 .04-.06h.08a24.808 24.808 0 0 1 .02-.04 17.776 17.776 0 0 1 .02-.04 9.149 9.149 0 0 0 .06-.02 9.149 9.149 0 0 1 .06-.02v-.04h.08c.012-.027.026-.054.04-.08a19.43 19.43 0 0 0 .119-.04v-.04a390.316 390.316 0 0 1 .16-.04l.04-.08a700.836 700.836 0 0 0 .12-.04 700.836 700.836 0 0 1 .12-.04v-.04h.079l.04-.08.18-.06a72.925 72.925 0 0 1 .18-.06v-.04h.08v-.04a390.316 390.316 0 0 0 .159-.04v-.04h.12v-.04h.08v-.04h.12v-.04h.08v-.04h.12v-.04h.119v-.04h.12v-.04a45.413 45.413 0 0 1 .14-.02 45.413 45.413 0 0 0 .14-.02v-.04h.16v-.04h.159v-.04h.2v-.04h.2v-.04h.239v-.04h.28v-.04h.439a.35.35 0 0 1 .023-.006c.187-.038.911-.086 1.095-.034v.04H15v.04h.28v.04h.24v.04h.199v.04a75.728 75.728 0 0 0 .24.026 152.205 152.205 0 0 1 .12.013v.04h.159v.04a45.413 45.413 0 0 0 .14.02 45.413 45.413 0 0 1 .14.02v.04h.12v.04h.12v.04h.119v.04h.08v.04c.147.065.3.05.4.16h-.04a.433.433 0 0 1-.071.091c-.032.032-.067.06-.101.089a.994.994 0 0 0-.068.06 375.179 375.179 0 0 0-.48.48 839.821 839.821 0 0 1-.22.24 633.808 633.808 0 0 1-.219.24 96.684 96.684 0 0 1-.2.16v.08a9.149 9.149 0 0 0-.06.02 9.149 9.149 0 0 1-.06.02 24.808 24.808 0 0 1-.02.04 17.776 17.776 0 0 1-.02.04 96.773 96.773 0 0 0-.1.08 96.773 96.773 0 0 1-.099.08l-.2.28h-.08a283.755 283.755 0 0 1-.359.39 847.414 847.414 0 0 0-.12.13h-.399a.07.07 0 0 0-.025-.01c-.138-.04-.735-.063-.854-.03v.04h-.359v.04h-.2v.04h-.2v.04h-.16v.04h-.119v.04h-.16v.04h-.08v.04a65.406 65.406 0 0 1-.12.02 65.406 65.406 0 0 0-.12.021v.04a15.493 15.493 0 0 1-.079.02 15.493 15.493 0 0 0-.08.02v.04h-.12v.04h-.08v.04h-.08a130.654 130.654 0 0 0-.02.04 9.615 9.615 0 0 1-.02.04 86.936 86.936 0 0 0-.239.08 9.653 9.653 0 0 1-.02.04 131.549 131.549 0 0 0-.02.04 390.316 390.316 0 0 0-.16.04 17.41 17.41 0 0 1-.04.06 28.337 28.337 0 0 1-.04.06h-.08a12.472 12.472 0 0 0-.02.04 12.472 12.472 0 0 1-.02.04h-.08a76.895 76.895 0 0 0-.06.08 76.895 76.895 0 0 1-.059.08c-.746.539-1.254 1.34-1.637 2.24a1423.496 1423.496 0 0 1-.027.187 135.293 135.293 0 0 0-.013.093h-.04v.12h-.04v.16h-.04v.2a2.5 2.5 0 0 0-.073.324c-.085.524-.064 1.207.065 1.65a1.81 1.81 0 0 0 .008.026l.04.36h.04v.12h.04a264.44 264.44 0 0 0 .02.14 304.775 304.775 0 0 0 .02.14h.04v.08h.04v.12h.04a43.58 43.58 0 0 0 .02.08 367.703 367.703 0 0 1 .02.08h.04a522.37 522.37 0 0 1 .06.18 522.37 522.37 0 0 0 .06.18l.079.041a38.633 38.633 0 0 1 .02.08 189.92 189.92 0 0 1 .02.08l.08.04.04.16a16.115 16.115 0 0 0 .12.08 114.113 114.113 0 0 0 .02.06 23.624 23.624 0 0 1 .02.06h.04v.08a86.467 86.467 0 0 1 .053.04l.026.02a25.424 25.424 0 0 0 .08.06 4.565 4.565 0 0 0 2.04 1.526 9.018 9.018 0 0 0 .756.274h.2v.04h.199v.04h.36v.04c.19.053.706.002.864-.036a.43.43 0 0 0 .014-.004h.36v-.04H15v-.04h.2v-.04h.16v-.04h.12v-.04h.159v-.04h.08v-.04a72.74 72.74 0 0 0 .12-.02 72.74 72.74 0 0 1 .12-.02v-.04a392.509 392.509 0 0 1 .08-.02 392.509 392.509 0 0 0 .08-.02v-.04a1576.317 1576.317 0 0 1 .179-.06 1576.317 1576.317 0 0 0 .18-.06 12.472 12.472 0 0 1 .04-.08l.16-.04a9.653 9.653 0 0 1 .02-.04 131.549 131.549 0 0 0 .02-.04h.08v-.04h.079l.04-.06a21.356 21.356 0 0 1 .04-.06h.08a12.472 12.472 0 0 0 .02-.04 12.472 12.472 0 0 1 .02-.04h.08l.12-.16h.08l.359-.4a206.5 206.5 0 0 1 .14-.12 206.5 206.5 0 0 0 .14-.12v-.08a25.424 25.424 0 0 0 .079-.06l.08-.06v-.08a4.773 4.773 0 0 1 .04-.02 4.773 4.773 0 0 0 .04-.02v-.08l.12-.08v-.08h.04v-.08l.08-.04a189.92 189.92 0 0 1 .02-.08 38.633 38.633 0 0 1 .02-.08l.08-.04v-.08h.04a703.307 703.307 0 0 1 .02-.08 71.063 71.063 0 0 1 .019-.08h.04v-.12h.04a367.703 367.703 0 0 1 .02-.08 43.58 43.58 0 0 0 .02-.08h.04a165.724 165.724 0 0 1 .02-.1 134.897 134.897 0 0 1 .02-.1h.04a304.775 304.775 0 0 0 .02-.14 264.44 264.44 0 0 0 .02-.14h.04v-.12h.04v-.16h.04v-.2h.04v-.2h.04v-.36c.096-.346.012-.787 0-1.166a2.608 2.608 0 0 1 0-.075 55.673 55.673 0 0 0 .139-.1 55.673 55.673 0 0 1 .14-.1 29.446 29.446 0 0 0 .02-.06 29.446 29.446 0 0 1 .02-.06l.479-.4v-.08h.04a43.164 43.164 0 0 0 .08-.1 33.33 33.33 0 0 1 .08-.1h.08a12.472 12.472 0 0 0 .02-.04 12.472 12.472 0 0 1 .02-.04h.04a293.998 293.998 0 0 0 .18-.22 293.998 293.998 0 0 1 .179-.22h.08a43.317 43.317 0 0 0 .04-.06 43.317 43.317 0 0 1 .04-.06 62.698 62.698 0 0 1 .04-.02 62.698 62.698 0 0 0 .04-.02v-.08l.239-.2a24.808 24.808 0 0 1 .02-.04 17.776 17.776 0 0 1 .02-.04h.08a11.51 11.51 0 0 0 .04-.06 15.615 15.615 0 0 1 .04-.06 5.158 5.158 0 0 1 .04-.02 5.158 5.158 0 0 0 .04-.02v-.08h.04a205.498 205.498 0 0 0 .08-.1 205.498 205.498 0 0 1 .08-.1h.119Zm-7.468 1.64h-.04v.08a5.104 5.104 0 0 0-.04.02 5.104 5.104 0 0 1-.04.02v.12h-.04a55.932 55.932 0 0 0-.02.08 55.932 55.932 0 0 1-.02.08h-.04v.48h.04v.08h.04v.08h.04a407.538 407.538 0 0 0 .02.08 407.538 407.538 0 0 1 .02.08 62.698 62.698 0 0 0 .04.02 62.698 62.698 0 0 1 .04.02 109.406 109.406 0 0 0 .2.24.26.26 0 0 0 .002.001c.1.067.441.2.678.175a.398.398 0 0 0 .079-.016v-.04a737.488 737.488 0 0 0 .2-.04 15.593 15.593 0 0 0 .02-.04 2075.003 2075.003 0 0 1 .02-.04h.119l2.037-2.08a26.057 26.057 0 0 1 .054-.054 5.568 5.568 0 0 1 .665-.586l1.317-1.36a11.452 11.452 0 0 1 .226-.22c.26-.245.518-.483.733-.78a96.622 96.622 0 0 1 .1-.08 96.622 96.622 0 0 0 .1-.08l.479-.5a2800.407 2800.407 0 0 1 .479-.5h4.273l2.795-2.84a2088.33 2088.33 0 0 0 .32-.307 2170.547 2170.547 0 0 0 .639-.614v-.08l.08-.04v-.12h.04a250.654 250.654 0 0 0 .013-.08 648.904 648.904 0 0 0 .027-.16h.04a1.221 1.221 0 0 0-.049-.254 1.088 1.088 0 0 0-.71-.706h-1.518a.809.809 0 0 0-.052-.013c-.216-.045-.53-.032-.798-.028a7.408 7.408 0 0 1-.108.001l-1.118-.04v-2.04h-.04c-.06-.218.004-.56-.02-.808a.669.669 0 0 0-.02-.112v-.68h-.04v-.12h-.04v-.08h-.04v-.08l-.24-.2v-.04h-.12a60.77 60.77 0 0 1-.04-.08h-.08v-.04h-.119v-.04c-.128-.041-.407.027-.5.07a.178.178 0 0 0-.02.01 24.808 24.808 0 0 1-.02.04 17.776 17.776 0 0 1-.02.04h-.079a17.776 17.776 0 0 0-.02.04 24.808 24.808 0 0 0-.02.04h-.08a536.281 536.281 0 0 0-.28.3l-.093.1a311.811 311.811 0 0 1-.186.2 11483.728 11483.728 0 0 1-1.018 1 15428.643 15428.643 0 0 1-1.019 1 9.118 9.118 0 0 0-.137.14l-.134.142a4.397 4.397 0 0 1-.607.558.206.206 0 0 0-.012.01c-.048.04-.08.1-.134.15a.309.309 0 0 1-.054.04v2.8c0 .389.023.836-.002 1.222a3.043 3.043 0 0 1-.038.338h-.08v.08h-.08v.08h-.08v.08h-.08l-.01.045m-.548.596h-.08v.08h-.08v.08h-.08v.08c-.174.047-.375.317-.514.472a1.263 1.263 0 0 1-.045.047l-.659.64a1919.964 1919.964 0 0 0-.659.641v.04a1.007 1.007 0 0 1-.018.017c-.153.146-.49.393-.54.583h-.08v.08h-.08v.08l-.043.011M15 13.655h-.08v.08h-.08v.079h-.08v.08h-.08v.08c-.096.024-.147.058-.178.132a.414.414 0 0 0-.021.068h-.08a.555.555 0 0 1-.012.037.348.348 0 0 1-.07.119 57.654 57.654 0 0 1-.02.023m1.74-1.739h-.08v.08h-.08v.08h-.08v.08h-.08v.08h-.08v.08l-.043.011m-.077.11h-.08v.08h-.08v.08h-.08v.079h-.08v.08h-.08v.08a1.31 1.31 0 0 1-.014.004l-.029.008m1.481-1.452h-.08v.08h-.08v.08h-.08v.08h-.079v.08h-.08v.08l-.042.011m3.474-3.48.028-.008a1.32 1.32 0 0 0 .014-.004v-.08h.08v-.08h.08v-.08h.08v-.08h.08v-.08m-3.91 3.988a55.363 55.363 0 0 1 0-.001 71.382 71.382 0 0 1 0-.001c.017-.066.017-.077.05-.087a.315.315 0 0 1 .013-.004m.46-.44a145.616 145.616 0 0 1 .002-.012c.013-.051.015-.057.057-.068m2.895-2.881a85.673 85.673 0 0 1 .003-.011c.012-.046.015-.056.045-.065a.308.308 0 0 1 .012-.004m-4.572 4.6a53.119 53.119 0 0 1 .003-.01c.011-.047.014-.056.044-.065a.312.312 0 0 1 .012-.004m.46-.44a53.365 53.365 0 0 1 .003-.012c.012-.051.015-.057.056-.068m4.473-4.481a.311.311 0 0 1-.004.012c-.01.03-.018.033-.064.045a72.793 72.793 0 0 1-.011.002M16.56 12.08a51.487 51.487 0 0 1 0-.002Zm-.447.426h.001m3.849-3.896h.001m-4.443 4.512v-.001M19.517 9.12a70.722 70.722 0 0 1 0-.002" fill="rgba(255, 255, 255, 1)" fill-rule="evenodd" data-name="Shape 1"/></svg>